<?xml version="1.0" encoding="UTF-8"?>
<!--Generator: Apple Native CoreSVG 175-->
<!DOCTYPE svg
PUBLIC "-//W3C//DTD SVG 1.1//EN"
       "http://www.w3.org/Graphics/SVG/1.1/DTD/svg11.dtd">
<svg version="1.1" xmlns="http://www.w3.org/2000/svg" xmlns:xlink="http://www.w3.org/1999/xlink" width="17.3154" height="17.3237">
 <g>
  <rect height="17.3237" opacity="0" width="17.3154" x="0" y="0"/>
  <path d="M8.65771 17.3154Q10.4341 17.3154 12.0029 16.6389Q13.5718 15.9624 14.7671 14.7671Q15.9624 13.5718 16.6389 12.0071Q17.3154 10.4424 17.3154 8.65771Q17.3154 6.88135 16.6389 5.31665Q15.9624 3.75195 14.7671 2.55664Q13.5718 1.36133 12.0029 0.680664Q10.4341 0 8.64941 0Q6.87305 0 5.30835 0.680664Q3.74365 1.36133 2.54834 2.55664Q1.35303 3.75195 0.676514 5.31665Q0 6.88135 0 8.65771Q0 10.4424 0.676514 12.0071Q1.35303 13.5718 2.54834 14.7671Q3.74365 15.9624 5.3125 16.6389Q6.88135 17.3154 8.65771 17.3154ZM8.65771 15.4146Q7.25488 15.4146 6.03052 14.8916Q4.80615 14.3687 3.87646 13.4431Q2.94678 12.5176 2.42798 11.2932Q1.90918 10.0688 1.90918 8.65771Q1.90918 7.25488 2.42798 6.03052Q2.94678 4.80615 3.87231 3.87646Q4.79785 2.94678 6.02222 2.42798Q7.24658 1.90918 8.64941 1.90918Q10.0605 1.90918 11.2849 2.42798Q12.5093 2.94678 13.4348 3.87646Q14.3604 4.80615 14.8875 6.03052Q15.4146 7.25488 15.4146 8.65771Q15.4146 10.0688 14.8916 11.2932Q14.3687 12.5176 13.4431 13.4431Q12.5176 14.3687 11.2891 14.8916Q10.0605 15.4146 8.65771 15.4146ZM5.42041 12.6919L9.96924 10.5669Q10.3843 10.3843 10.5835 9.96094L12.6836 5.41211Q12.8911 4.95557 12.6213 4.68164Q12.3516 4.40771 11.8784 4.61523L7.34619 6.72363Q6.93945 6.90625 6.73193 7.33789L4.62354 11.895Q4.48242 12.1938 4.56958 12.4263Q4.65674 12.6587 4.88501 12.7417Q5.11328 12.8247 5.42041 12.6919ZM8.65771 9.72852Q8.21777 9.72852 7.90649 9.41724Q7.59521 9.10596 7.59521 8.65771Q7.59521 8.21777 7.90649 7.90649Q8.21777 7.59521 8.65771 7.59521Q9.09766 7.59521 9.40894 7.90649Q9.72021 8.21777 9.72021 8.65771Q9.72021 9.10596 9.40894 9.41724Q9.09766 9.72852 8.65771 9.72852Z" fill="rgba(255,255,255,0.85)"/>
 </g>
</svg>
